# File created by Blade
# Date/Time:  Thu Jan 15 17:55:17 2015
#---------------------------------------------------------
:version 1.10
:name HOM
:units
  mass 1.0
  length 1.000000
  angle deg
:documentation
     Acclaim Skeleton File
:root
   axis xyz
   order TX TY TZ RX RY RZ
   position 0.000000 0.000000 0.000000
   orientation 0 0 0
:bonedata
   begin
      id 1
      name Spine_dum
      direction 0.000000 1.000000 0.000000
      length 5.015652
      axis 0.0 0.0 0.0 xyz
   end
   begin
      id 2
      name LeftUpLeg_dum
      direction 1.000000 0.000000 0.000000
      length 4.275145
      axis 0.0 0.0 0.0 xyz
   end
   begin
      id 3
      name RightUpLeg_dum
      direction -1.000000 0.000000 0.000000
      length 4.275145
      axis 0.0 0.0 0.0 xyz
   end
   begin
      id 4
      name Spine
      direction 0.000000 1.000000 0.000000
      length 0.000000
      axis 0.0 0.0 0.0 xyz
      dof rx ry rz
   end
   begin
      id 5
      name Spine_dum1
      direction 0.000000 1.000000 0.000000
      length 15.980521
      axis 0.0 0.0 0.0 xyz
   end
   begin
      id 6
      name Spine_dum2
      direction 0.000000 1.000000 0.000000
      length 12.162712
      axis 0.0 0.0 0.0 xyz
   end
   begin
      id 7
      name Spine_dum3
      direction 0.000000 1.000000 0.000000
      length 12.162712
      axis 0.0 0.0 0.0 xyz
   end
   begin
      id 8
      name Head
      direction 0.000000 1.000000 0.000000
      length 4.527550
      axis 0.0 0.0 0.0 xyz
      dof rx ry rz
   end
   begin
      id 9
      name LeftShoulder
      direction 1.000000 0.000000 0.000000
      length 7.205867
      axis 0.0 0.0 -90.0 xyz
      dof rx ry rz
   end
   begin
      id 10
      name LeftArm
      direction 1.000000 0.000000 0.000000
      length 10.786708
      axis 0.0 0.0 -90.0 xyz
      dof rx ry rz
   end
   begin
      id 11
      name LeftForeArm
      direction 1.000000 0.000000 0.000000
      length 7.946034
      axis 0.0 0.0 -90.0 xyz
      dof rz ry rx
   end
   begin
      id 12
      name LeftHand
      direction 0.000000 0.000000 0.000000
      length 0.000000
      axis 0.0 0.0 -90.0 xyz
      dof rx ry rz
   end
   begin
      id 13
      name LeftHand_dum1
      direction 0.000000 0.000000 0.000000
      length 0.000000
      axis 0.0 0.0 -90.0 xyz
   end
   begin
      id 14
      name LeftHand_dum2
      direction 1.000000 0.000000 0.000000
      length 3.937000
      axis 0.0 0.0 -90.0 xyz
   end
   begin
      id 15
      name LeftHandThumb1
      direction 0.000000 0.000000 1.000000
      length 3.937000
      axis 0.0 0.0 -90.0 xyz
      dof rx ry rz
   end
   begin
      id 16
      name RightShoulder
      direction -1.000000 0.000000 0.000000
      length 7.205867
      axis 0.0 0.0 90.0 xyz
      dof rx ry rz
   end
   begin
      id 17
      name RightArm
      direction -1.000000 0.000000 0.000000
      length 10.786708
      axis 0.0 0.0 90.0 xyz
      dof rx ry rz
   end
   begin
      id 18
      name RightForeArm
      direction -1.000000 0.000000 0.000000
      length 7.946034
      axis 0.0 0.0 90.0 xyz
      dof rz ry rx
   end
   begin
      id 19
      name RightHand
      direction 0.000000 0.000000 0.000000
      length 0.000000
      axis 0.0 0.0 90.0 xyz
      dof rx ry rz
   end
   begin
      id 20
      name RightHand_dum1
      direction 0.000000 0.000000 0.000000
      length 0.000000
      axis 0.0 0.0 90.0 xyz
   end
   begin
      id 21
      name RightHand_dum2
      direction -1.000000 0.000000 0.000000
      length 3.937000
      axis 0.0 0.0 90.0 xyz
   end
   begin
      id 22
      name RightHandThumb1
      direction 0.000000 0.000000 1.000000
      length 3.937000
      axis 0.0 0.0 90.0 xyz
      dof rx ry rz
   end
   begin
      id 23
      name LeftUpLeg
      direction 0.000000 -1.000000 0.000000
      length 17.046659
      axis 0.0 0.0 0.0 xyz
      dof rx ry rz
   end
   begin
      id 24
      name LeftLeg
      direction 0.000000 -1.000000 0.000000
      length 17.458438
      axis 0.0 0.0 0.0 xyz
      dof rx ry rz
   end
   begin
      id 25
      name LeftFoot
      direction 0.000000 -0.258819 0.965926
      length 5.099406
      axis 15.0 0.0 0.0 xyz
      dof rx ry rz
   end
   begin
      id 26
      name LeftToeBase
      direction 0.000000 0.000000 1.000000
      length 2.952750
      axis 0.0 0.0 0.0 xyz
      dof rx ry rz
   end
   begin
      id 27
      name RightUpLeg
      direction 0.000000 -1.000000 0.000000
      length 17.046659
      axis 0.0 0.0 0.0 xyz
      dof rx ry rz
   end
   begin
      id 28
      name RightLeg
      direction 0.000000 -1.000000 0.000000
      length 17.458438
      axis 0.0 0.0 0.0 xyz
      dof rx ry rz
   end
   begin
      id 29
      name RightFoot
      direction 0.000000 -0.258819 0.965926
      length 5.099406
      axis 15.0 0.0 0.0 xyz
      dof rx ry rz
   end
   begin
      id 30
      name RightToeBase
      direction 0.000000 0.000000 1.000000
      length 2.952750
      axis 0.0 0.0 0.0 xyz
      dof rx ry rz
   end
:hierarchy
   begin
      root Spine_dum LeftUpLeg_dum RightUpLeg_dum
      Spine_dum Spine
      LeftUpLeg_dum LeftUpLeg
      RightUpLeg_dum RightUpLeg
      Spine Spine_dum1 Spine_dum2 Spine_dum3
      Spine_dum1 Head
      Spine_dum2 LeftShoulder
      Spine_dum3 RightShoulder
      LeftShoulder LeftArm
      LeftArm LeftForeArm
      LeftForeArm LeftHand
      LeftHand LeftHand_dum1 LeftHand_dum2
      LeftHand_dum1 LeftHandThumb1
      RightShoulder RightArm
      RightArm RightForeArm
      RightForeArm RightHand
      RightHand RightHand_dum1 RightHand_dum2
      RightHand_dum1 RightHandThumb1
      LeftUpLeg LeftLeg
      LeftLeg LeftFoot
      LeftFoot LeftToeBase
      RightUpLeg RightLeg
      RightLeg RightFoot
      RightFoot RightToeBase
   end

# File created by Blade
# Date/Time:  Thu Jan 15 17:55:09 2015
# Frame Rate: 120.000 fps
#------------------------------------------------------
:FULLY-SPECIFIED
:DEGREES
731
root 7.084827 35.886353 -11.920045 -10.423007 -1.469900 5.086976
Spine 20.326086 11.126155 -7.532400
Head -20.899682 -2.549998 25.730946
LeftShoulder -32.850568 3.523019 1.367386
LeftArm -12.710338 -22.296484 -74.457825
LeftForeArm -0.000000 11.621066 10.451184
LeftHand 4.728740 0.000000 -1.669632
LeftHandThumb1 -26.253704 33.147579 0.000000
RightShoulder 6.786053 20.030346 8.973776
RightArm 38.423690 15.464435 74.052205
RightForeArm 0.000000 -23.498046 145.482407
RightHand 0.517027 -0.000000 -5.469558
RightHandThumb1 -24.326973 -32.862282 -0.000000
LeftUpLeg -105.293928 -15.869823 -11.386713
LeftLeg 125.161214 -0.000000 -0.000000
LeftFoot -29.157421 21.773110 -17.530899
LeftToeBase 16.925939 -0.000000 -0.000000
RightUpLeg 9.892763 -10.371931 2.123522
RightLeg 5.942362 -0.000000 -0.000000
RightFoot -24.737551 -27.496027 6.800018
RightToeBase 23.709056 -0.000000 -0.000000
732
root 7.091489 35.877048 -11.940100 -10.108041 -1.408834 5.044915
Spine 20.081103 10.782982 -7.601356
Head -20.909198 -2.340736 25.671076
LeftShoulder -32.754113 3.456795 1.342196
LeftArm -12.501794 -22.537229 -74.322708
LeftForeArm -0.000000 12.040401 9.888681
LeftHand 4.824758 -0.000000 -1.644495
LeftHandThumb1 -26.253704 33.147579 0.000000
RightShoulder 7.033060 20.196384 9.027456
RightArm 38.679285 15.398453 74.052931
RightForeArm -0.000000 -23.763851 145.801439
RightHand 0.799722 -0.000000 -5.146825
RightHandThumb1 -24.326973 -32.862282 -0.000000
LeftUpLeg -105.066096 -16.098686 -11.066765
LeftLeg 124.519933 -0.000000 -0.000000
LeftFoot -29.019303 21.679390 -17.675134
LeftToeBase 16.873587 -0.000000 -0.000000
RightUpLeg 9.392203 -10.326139 2.245515
RightLeg 6.227891 -0.000000 -0.000000
RightFoot -24.853179 -27.653978 6.783146
RightToeBase 23.706332 -0.000000 -0.000000
733
root 7.094991 35.866867 -11.960775 -9.750811 -1.393727 4.988534
Spine 19.735471 10.504256 -7.648336
Head -20.812200 -2.176264 25.564788
LeftShoulder -32.666483 3.424675 1.289892
LeftArm -12.200591 -22.429445 -74.277029
LeftForeArm -0.000000 12.348545 9.514497
LeftHand 4.808592 0.000000 -1.063242
LeftHandThumb1 -26.253704 33.147579 0.000000
RightShoulder 7.223164 20.269329 9.052363
RightArm 38.846969 15.220583 73.843563
RightForeArm -0.000000 -24.111530 145.767884
RightHand 1.032598 -0.000000 -5.459886
RightHandThumb1 -24.326973 -32.862282 -0.000000
LeftUpLeg -104.718154 -16.224364 -10.766164
LeftLeg 123.855540 -0.000000 -0.000000
LeftFoot -28.916394 21.700639 -17.744542
LeftToeBase 16.640638 -0.000000 -0.000000
RightUpLeg 8.896668 -10.230064 2.401256
RightLeg 6.413468 -0.000000 -0.000000
RightFoot -24.920382 -27.823860 6.757425
RightToeBase 23.669102 -0.000000 -0.000000
734
root 7.095827 35.855988 -11.987507 -9.323353 -1.364320 4.900091
Spine 19.289405 10.245967 -7.657928
Head -20.680399 -2.117952 25.463917
LeftShoulder -32.557148 3.361373 1.256284
LeftArm -11.862409 -22.257026 -74.222202
LeftForeArm 0.000000 12.315622 9.176941
LeftHand 4.610567 -0.000000 -1.251134
LeftHandThumb1 -26.253704 33.147579 0.000000
RightShoulder 7.369062 20.339917 9.074982
RightArm 38.929659 14.938653 73.532076
RightForeArm -0.000000 -24.359844 145.410414
RightHand 1.272528 -0.000000 -5.851379
RightHandThumb1 -24.326973 -32.862282 -0.000000
LeftUpLeg -104.264059 -16.339847 -10.459167
LeftLeg 123.121501 -0.000000 -0.000000
LeftFoot -28.891010 21.926078 -17.739984
LeftToeBase 16.591283 -0.000000 -0.000000
RightUpLeg 8.373190 -10.143826 2.602546
RightLeg 6.502932 -0.000000 -0.000000
RightFoot -24.928544 -27.996982 6.714673
RightToeBase 23.647822 -0.000000 -0.000000
735
root 7.096063 35.848755 -12.005622 -8.989192 -1.379454 4.839060
Spine 18.897800 10.049759 -7.675923
Head -20.494952 -2.087470 25.344186
LeftShoulder -32.472524 3.272314 1.212083
LeftArm -11.483196 -22.120792 -74.132868
LeftForeArm -0.000000 12.502999 8.910465
LeftHand 4.636184 -0.000000 -1.148236
LeftHandThumb1 -26.253704 33.147579 0.000000
RightShoulder 7.490363 20.373808 9.101167
RightArm 39.079466 14.852048 73.445569
RightForeArm 0.000000 -24.886475 144.746593
RightHand 1.560808 -0.000000 -5.720584
RightHandThumb1 -24.326973 -32.862282 -0.000000
LeftUpLeg -103.581881 -16.331921 -10.208353
LeftLeg 122.410806 -0.000000 -0.000000
LeftFoot -28.902254 22.048235 -17.801387
LeftToeBase 16.456607 -0.000000 -0.000000
RightUpLeg 8.027221 -10.006880 2.758826
RightLeg 6.454377 -0.000000 -0.000000
RightFoot -24.883700 -28.145257 6.637626
RightToeBase 23.690280 -0.000000 -0.000000
736
root 7.097560 35.844521 -12.020709 -8.695468 -1.393948 4.784977
Spine 18.513329 9.860978 -7.685305
Head -20.240131 -2.099088 25.209528
LeftShoulder -32.390751 3.162461 1.146881
LeftArm -11.053765 -21.948482 -74.028295
LeftForeArm -0.000000 12.800447 8.689545
LeftHand 4.780001 -0.000000 -0.867755
LeftHandThumb1 -26.253704 33.147579 0.000000
RightShoulder 7.579502 20.316625 9.147585
RightArm 39.167399 14.623895 73.121598
RightForeArm -0.000000 -25.598152 143.747164
RightHand 1.390835 -0.000000 -6.433051
RightHandThumb1 -24.326973 -32.862282 -0.000000
LeftUpLeg -102.671941 -16.281358 -10.019408
LeftLeg 121.642198 -0.000000 -0.000000
LeftFoot -29.112892 22.269087 -17.936348
LeftToeBase 16.589616 -0.000000 -0.000000
RightUpLeg 7.778791 -9.899631 2.886939
RightLeg 6.307689 -0.000000 -0.000000
RightFoot -24.783488 -28.262938 6.548290
RightToeBase 23.679236 -0.000000 -0.000000
